<mxfile host="app.diagrams.net" modified="2023-12-29T12:05:54.891Z" agent="Mozilla/5.0 (Windows NT 10.0; Win64; x64) AppleWebKit/537.36 (KHTML, like Gecko) Chrome/120.0.0.0 Safari/537.36" etag="U9dNSLEYkaGMqAxP19nS" version="22.1.15" type="github">
  <diagram name="Page-1" id="gj7hx-0s5JWte3JfZBQN">
    <mxGraphModel dx="2100" dy="530" grid="1" gridSize="10" guides="1" tooltips="1" connect="1" arrows="1" fold="1" page="1" pageScale="1" pageWidth="1050" pageHeight="1000" math="0" shadow="0">
      <root>
        <mxCell id="0" />
        <mxCell id="1" parent="0" />
        <mxCell id="6aHuienJDy7sDLIX7IC--4" value="" style="edgeStyle=orthogonalEdgeStyle;rounded=0;orthogonalLoop=1;jettySize=auto;html=1;" edge="1" parent="1" source="6aHuienJDy7sDLIX7IC--1" target="6aHuienJDy7sDLIX7IC--2">
          <mxGeometry relative="1" as="geometry" />
        </mxCell>
        <mxCell id="6aHuienJDy7sDLIX7IC--5" value="Download Account Data For the current day&lt;br&gt;" style="edgeLabel;html=1;align=center;verticalAlign=middle;resizable=0;points=[];" vertex="1" connectable="0" parent="6aHuienJDy7sDLIX7IC--4">
          <mxGeometry x="-0.2022" y="4" relative="1" as="geometry">
            <mxPoint x="-36" y="10" as="offset" />
          </mxGeometry>
        </mxCell>
        <mxCell id="6aHuienJDy7sDLIX7IC--9" style="edgeStyle=orthogonalEdgeStyle;rounded=0;orthogonalLoop=1;jettySize=auto;html=1;exitX=0.5;exitY=0;exitDx=0;exitDy=0;exitPerimeter=0;" edge="1" parent="1" source="6aHuienJDy7sDLIX7IC--1">
          <mxGeometry relative="1" as="geometry">
            <mxPoint x="225" y="51.200000000000045" as="targetPoint" />
          </mxGeometry>
        </mxCell>
        <mxCell id="6aHuienJDy7sDLIX7IC--1" value="LSA_ACCOUNT_DAILY&lt;br&gt;" style="outlineConnect=0;dashed=0;verticalLabelPosition=bottom;verticalAlign=top;align=center;html=1;shape=mxgraph.aws3.lambda_function;fillColor=#F58534;gradientColor=none;" vertex="1" parent="1">
          <mxGeometry x="220" y="90" width="50" height="50" as="geometry" />
        </mxCell>
        <mxCell id="6aHuienJDy7sDLIX7IC--2" value="" style="strokeColor=#dddddd;shadow=1;strokeWidth=1;rounded=1;absoluteArcSize=1;arcSize=2;" vertex="1" parent="1">
          <mxGeometry x="30" y="20" width="50" height="60" as="geometry" />
        </mxCell>
        <mxCell id="6aHuienJDy7sDLIX7IC--3" value="Google&#xa;Ads" style="sketch=0;dashed=0;connectable=0;html=1;fillColor=#5184F3;strokeColor=none;shape=mxgraph.gcp2.google_ads;part=1;labelPosition=right;verticalLabelPosition=middle;align=left;verticalAlign=middle;spacingLeft=5;fontColor=#999999;fontSize=12;" vertex="1" parent="6aHuienJDy7sDLIX7IC--2">
          <mxGeometry width="45" height="45" relative="1" as="geometry">
            <mxPoint x="5" y="7" as="offset" />
          </mxGeometry>
        </mxCell>
        <mxCell id="6aHuienJDy7sDLIX7IC--6" value="stage_lsa_account_daily_f" style="outlineConnect=0;dashed=0;verticalLabelPosition=bottom;verticalAlign=top;align=center;html=1;shape=mxgraph.aws3.athena;fillColor=#F58534;gradientColor=none;" vertex="1" parent="1">
          <mxGeometry x="300" y="19.999999999999986" width="40" height="30" as="geometry" />
        </mxCell>
        <mxCell id="6aHuienJDy7sDLIX7IC--10" value="" style="edgeStyle=orthogonalEdgeStyle;rounded=0;orthogonalLoop=1;jettySize=auto;html=1;" edge="1" parent="1" target="6aHuienJDy7sDLIX7IC--6">
          <mxGeometry relative="1" as="geometry">
            <mxPoint x="239.99669097538708" y="35.60000000000002" as="sourcePoint" />
          </mxGeometry>
        </mxCell>
        <mxCell id="6aHuienJDy7sDLIX7IC--11" value="" style="verticalLabelPosition=bottom;html=1;verticalAlign=top;strokeWidth=1;align=center;outlineConnect=0;dashed=0;outlineConnect=0;shape=mxgraph.aws3d.s3Bucket;fillColor=#4286c5;strokeColor=#57A2D8;aspect=fixed;" vertex="1" parent="1">
          <mxGeometry x="200" y="10.6" width="40" height="41.49" as="geometry" />
        </mxCell>
      </root>
    </mxGraphModel>
  </diagram>
</mxfile>
